<svg width="180" height="41" viewBox="0 0 180 41" fill="none" xmlns="http://www.w3.org/2000/svg">
<path d="M23.76 37.24C24.48 37.24 25.44 36.42 26.64 34.78C27.84 33.1 29.02 30.96 30.18 28.36C31.38 25.72 32.1 24.4 32.34 24.4C32.62 24.4 32.76 24.56 32.76 24.88C32.76 26 32.18 27.78 31.02 30.22C27.86 36.94 25.18 40.3 22.98 40.3C21.14 40.3 19.82 39.98 19.02 39.34C18.66 38.98 18.48 35.18 18.48 27.94L8.64 28.66C7.88 30.74 7.2 32.82 6.6 34.9C6 36.98 5.6 38.26 5.4 38.74C4.96 39.78 3.9 40.3 2.22 40.3C1.1 40.3 0.54 39.82 0.54 38.86C0.54 37.9 1.3 36.5 2.82 34.66C3.1 34.3 4.02 32.36 5.58 28.84C5.02 28.88 4.48 28.9 3.96 28.9C2.56 28.9 1.86 28.3 1.86 27.1C1.86 26.02 2.42 25.48 3.54 25.48C3.62 25.48 4.76 25.58 6.96 25.78C7.56 24.38 8.2 23 8.88 21.64C14.12 10.68 17.72 5.2 19.68 5.2C21.16 5.2 22.18 12.06 22.74 25.78H23.28C23.56 25.78 23.7 25.98 23.7 26.38C23.7 26.78 23.4 27.12 22.8 27.4C23.04 33.96 23.36 37.24 23.76 37.24ZM9.54 26.08C14.22 26.08 17.2 26.06 18.48 26.02C18.44 25.38 18.4 24.26 18.36 22.66C18.32 21.06 18.28 19.68 18.24 18.52C18.2 17.32 18.16 16.08 18.12 14.8C17.96 12.04 17.72 10.66 17.4 10.66C16.96 10.66 16.06 11.96 14.7 14.56C13.34 17.16 12.28 19.36 11.52 21.16C10.48 23.76 9.82 25.4 9.54 26.08ZM41.2786 19.3C43.1186 19.3 44.6386 19.98 45.8386 21.34C47.0386 22.66 47.6586 24.52 47.6986 26.92C49.3386 26.44 50.7786 25.86 52.0186 25.18C53.2986 24.5 53.9786 24.16 54.0586 24.16C54.2986 24.16 54.4186 24.36 54.4186 24.76C54.4186 25.16 53.8386 25.78 52.6786 26.62C51.5586 27.46 49.8586 28.3 47.5786 29.14C47.0986 32.7 45.6586 35.46 43.2586 37.42C40.8586 39.34 38.4586 40.3 36.0586 40.3C33.6586 40.3 32.0586 39.42 31.2586 37.66C30.4586 35.86 30.0586 33.04 30.0586 29.2C30.0586 25.36 30.3386 21.72 30.8986 18.28C31.4586 14.84 32.1786 12.14 33.0586 10.18C33.9386 8.18 34.8386 6.66 35.7586 5.62C36.7186 4.54 37.6186 4 38.4586 4C38.8586 4 39.2186 4.48 39.5386 5.44C39.8986 6.4 40.0786 7.58 40.0786 8.98C40.0786 12.06 39.5186 15.66 38.3986 19.78C39.1586 19.46 40.1186 19.3 41.2786 19.3ZM43.9786 30.1C43.6586 30.14 42.9786 30.16 41.9386 30.16C40.9386 30.16 39.8186 29.82 38.5786 29.14C37.3786 28.42 36.5586 27.44 36.1186 26.2C35.7186 27.2 35.2586 28.16 34.7386 29.08C34.8186 32.12 35.0586 34.3 35.4586 35.62C35.8586 36.94 36.4986 37.6 37.3786 37.6C38.7786 37.6 40.1386 37.02 41.4586 35.86C42.8186 34.66 43.6586 32.74 43.9786 30.1ZM38.6386 10.06C38.6386 8.38 38.4186 7.54 37.9786 7.54C37.6186 7.54 37.1786 8.42 36.6586 10.18C36.1786 11.9 35.7186 14.26 35.2786 17.26C34.8786 20.22 34.6786 23.16 34.6786 26.08C37.3186 18.6 38.6386 13.26 38.6386 10.06ZM40.3186 21.46C39.7586 21.46 39.2986 21.64 38.9386 22C38.6186 22.32 38.4586 22.76 38.4586 23.32C38.4586 24.56 38.9986 25.6 40.0786 26.44C41.1986 27.24 42.5386 27.64 44.0986 27.64C44.0586 26 43.7386 24.56 43.1386 23.32C42.5386 22.08 41.5986 21.46 40.3186 21.46ZM70.3425 26.98C71.9425 26.46 73.0425 26.02 73.6425 25.66C74.2825 25.26 74.7625 24.96 75.0825 24.76L75.8025 24.34C76.0025 24.22 76.1625 24.16 76.2825 24.16C76.6025 24.16 76.7625 24.34 76.7625 24.7C76.7625 25.06 76.1425 25.7 74.9025 26.62C73.6625 27.5 72.1225 28.3 70.2825 29.02C70.0025 32.38 68.9425 35.1 67.1025 37.18C65.2625 39.26 62.6425 40.3 59.2425 40.3C56.7625 40.3 54.8625 39.32 53.5425 37.36C52.2225 35.36 51.5625 33.04 51.5625 30.4C51.5625 27.72 52.3425 25.2 53.9025 22.84C55.5025 20.48 57.5425 19.3 60.0225 19.3C61.1425 18.5 62.4625 18.1 63.9825 18.1C65.5425 18.1 66.9825 18.92 68.3025 20.56C69.6225 22.2 70.3025 24.34 70.3425 26.98ZM66.4425 30.04L64.2825 30.16C62.4425 30.16 60.8825 29.62 59.6025 28.54C58.3225 27.42 57.6825 26.2 57.6825 24.88C57.6825 23.56 57.9025 22.42 58.3425 21.46C56.6225 22.82 55.7625 25.5 55.7625 29.5C55.7625 31.42 56.1625 33.26 56.9625 35.02C57.7625 36.74 59.0225 37.6 60.7425 37.6C62.4625 37.6 63.8025 36.88 64.7625 35.44C65.7225 33.96 66.2825 32.16 66.4425 30.04ZM62.7225 20.08C62.0825 20.08 61.5825 20.38 61.2225 20.98C60.8625 21.54 60.6825 22.16 60.6825 22.84C60.6825 24.32 61.1825 25.52 62.1825 26.44C63.2225 27.36 64.4225 27.82 65.7825 27.82H66.5025C66.4225 25.86 66.0825 24.08 65.4825 22.48C64.9225 20.88 64.0025 20.08 62.7225 20.08ZM73.418 34.78L73.778 28.06C73.778 23.78 73.978 21.44 74.378 21.04C74.778 20.64 75.478 20.06 76.478 19.3C77.518 18.5 78.258 18.1 78.698 18.1C79.178 18.1 79.478 18.18 79.598 18.34C79.718 18.5 79.778 18.82 79.778 19.3C79.778 21.02 79.398 22.76 78.638 24.52C78.038 28.2 77.738 31.22 77.738 33.58C77.738 35.94 78.118 37.12 78.878 37.12C79.798 37.12 80.878 36.32 82.118 34.72C83.358 33.12 84.598 30.74 85.838 27.58C86.198 23.58 86.478 21.42 86.678 21.1C86.918 20.78 87.478 20.2 88.358 19.36C89.238 18.52 89.958 18.1 90.518 18.1C91.118 18.1 91.418 18.86 91.418 20.38C91.418 20.78 91.298 21.56 91.058 22.72C90.858 23.88 90.618 24.72 90.338 25.24C89.898 26.36 89.678 29.82 89.678 35.62C89.678 36.7 89.798 37.24 90.038 37.24C90.718 37.2 91.658 36.36 92.858 34.72C94.058 33.04 95.238 30.9 96.398 28.3C97.598 25.7 98.318 24.4 98.558 24.4C98.838 24.4 98.978 24.56 98.978 24.88C98.978 26 98.398 27.78 97.238 30.22C94.078 36.94 91.418 40.3 89.258 40.3C87.698 40.3 86.518 39.98 85.718 39.34C85.438 39.06 85.298 38.2 85.298 36.76C85.298 35.32 85.358 33.72 85.478 31.96C84.198 34.68 82.918 36.76 81.638 38.2C80.358 39.6 78.918 40.3 77.318 40.3C75.758 40.3 74.718 39.88 74.198 39.04C73.678 38.2 73.418 36.78 73.418 34.78ZM108.772 30.22C105.612 36.94 102.932 40.3 100.732 40.3C98.572 40.3 97.292 40.04 96.892 39.52C96.532 39 96.352 37.28 96.352 34.36C96.352 31.44 96.632 27.22 97.192 21.7C95.192 21.3 94.132 20.48 94.012 19.24C94.012 18.6 94.432 18.28 95.272 18.28C96.112 18.28 96.852 18.44 97.492 18.76C97.852 15.88 98.272 12.96 98.752 10C98.872 9.24 99.252 8.52 99.892 7.84C100.532 7.16 101.152 6.82 101.752 6.82C102.272 6.82 102.532 7.64 102.532 9.28C102.532 10.04 102.252 13.54 101.692 19.78C102.772 19.58 103.952 19.18 105.232 18.58C106.552 17.98 107.332 17.68 107.572 17.68C108.292 17.68 108.652 17.9 108.652 18.34C108.692 18.74 107.952 19.3 106.432 20.02C104.912 20.7 103.272 21.22 101.512 21.58C101.032 27.42 100.792 31.84 100.792 34.84C100.792 36.44 101.032 37.24 101.512 37.24C102.232 37.2 103.192 36.36 104.392 34.72C105.592 33.08 106.772 30.96 107.932 28.36C109.132 25.72 109.852 24.4 110.092 24.4C110.372 24.4 110.512 24.56 110.512 24.88C110.512 26 109.932 27.78 108.772 30.22ZM150.015 27.46C150.015 33.98 150.375 37.24 151.095 37.24C151.815 37.24 152.775 36.42 153.975 34.78C155.215 33.1 156.415 30.96 157.575 28.36C158.775 25.72 159.495 24.4 159.735 24.4C160.015 24.4 160.155 24.56 160.155 24.88C160.155 26 159.475 28.04 158.115 31C155.195 37.2 152.575 40.3 150.255 40.3C149.375 40.3 148.575 40.2 147.855 40C147.135 39.76 146.695 39.54 146.535 39.34C146.135 38.86 145.935 37.1 145.935 34.06C145.935 26.86 146.175 21.02 146.655 16.54C144.335 18.82 142.215 21.42 140.295 24.34C141.135 27.54 141.555 30.32 141.555 32.68C141.555 35 141.095 36.8 140.175 38.08C139.295 39.36 138.175 40 136.815 40C135.175 40 134.355 38.42 134.355 35.26C134.355 33.1 135.215 30.24 136.935 26.68C136.135 23.88 134.975 21.14 133.455 18.46C132.815 22.1 131.835 25.82 130.515 29.62C129.195 33.42 127.835 36.26 126.435 38.14C125.035 39.98 123.375 40.9 121.455 40.9C120.055 40.9 119.355 40.36 119.355 39.28C119.355 38.4 119.655 37.78 120.255 37.42C120.855 37.06 121.555 36.8 122.355 36.64C123.195 36.44 123.735 36.22 123.975 35.98C125.535 34.34 126.995 31.54 128.355 27.58C129.755 23.62 130.775 19.56 131.415 15.4C129.695 13.16 128.835 11.5 128.835 10.42C128.835 9.3 129.115 8.32 129.675 7.48C130.275 6.64 131.235 6.22 132.555 6.22C132.955 6.22 133.295 6.74 133.575 7.78C133.855 8.78 133.995 9.84 133.995 10.96C136.435 14.52 138.295 18.2 139.575 22C141.815 18.32 144.375 14.92 147.255 11.8C148.495 4.24 149.935 0.459998 151.575 0.459998C152.135 0.459998 152.715 0.879998 153.315 1.72C153.955 2.56 154.275 3.42 154.275 4.3C154.275 7.02 153.095 9.78 150.735 12.58C150.255 15.98 150.015 20.94 150.015 27.46ZM137.535 29.26C136.575 31.38 136.095 33.28 136.095 34.96C136.095 36.6 136.295 37.42 136.695 37.42C137.095 37.42 137.395 36.94 137.595 35.98C137.795 34.98 137.895 33.94 137.895 32.86C137.895 31.78 137.775 30.58 137.535 29.26ZM165.758 40.3C163.518 40.3 161.737 39.46 160.417 37.78C159.097 36.06 158.438 34.12 158.438 31.96C158.438 27.6 159.358 24.3 161.198 22.06C163.038 19.82 165.418 18.7 168.338 18.7C169.698 18.7 170.818 19.08 171.698 19.84C172.578 20.56 173.018 21.56 173.018 22.84C173.018 25.24 171.998 27.26 169.958 28.9C167.958 30.5 165.498 31.34 162.578 31.42C162.738 32.98 163.258 34.34 164.138 35.5C165.058 36.62 166.118 37.18 167.318 37.18C168.518 37.18 169.598 36.9 170.558 36.34C171.518 35.78 172.398 34.98 173.198 33.94C174.878 31.74 176.318 29.24 177.518 26.44C177.838 25.72 178.078 25.2 178.238 24.88C178.438 24.56 178.638 24.4 178.838 24.4C179.078 24.4 179.198 24.56 179.198 24.88C179.198 26.88 177.978 29.88 175.538 33.88C172.898 38.16 169.638 40.3 165.758 40.3ZM162.578 29.98C164.938 29.58 166.658 28.82 167.738 27.7C168.858 26.58 169.418 25.12 169.418 23.32C169.418 21.52 168.838 20.62 167.678 20.62C166.278 20.62 165.098 21.6 164.138 23.56C163.178 25.48 162.658 27.62 162.578 29.98Z" fill="white"/>
</svg>
