<svg width="24" height="25" viewBox="0 0 24 25" fill="none" xmlns="http://www.w3.org/2000/svg">
<path d="M20.625 2.73438H3.375C2.96016 2.73438 2.625 3.0835 2.625 3.51562V21.4844C2.625 21.9165 2.96016 22.2656 3.375 22.2656H20.625C21.0398 22.2656 21.375 21.9165 21.375 21.4844V3.51562C21.375 3.0835 21.0398 2.73438 20.625 2.73438ZM18.4594 8.43506H16.9617C15.7875 8.43506 15.5602 9.01611 15.5602 9.8706V11.7529H18.3633L17.9977 14.6997H15.5602V22.2656H12.6375V14.7021H10.193V11.7529H12.6375V9.58008C12.6375 7.05811 14.1164 5.68359 16.2773 5.68359C17.3133 5.68359 18.2016 5.76416 18.4617 5.80078V8.43506H18.4594Z" fill="white"/>
</svg>
