<svg width="22" height="18" viewBox="0 0 22 18" fill="none" xmlns="http://www.w3.org/2000/svg">
<path d="M19.8 15.75H17.6V5.90625L11 10.125L4.4 5.90625V15.75H2.2V2.25H3.52L11 7.03125L18.48 2.25H19.8V15.75ZM19.8 0H2.2C0.979 0 0 1.00125 0 2.25V15.75C0 16.3467 0.231785 16.919 0.644365 17.341C1.05694 17.7629 1.61652 18 2.2 18H19.8C20.3835 18 20.9431 17.7629 21.3556 17.341C21.7682 16.919 22 16.3467 22 15.75V2.25C22 1.65326 21.7682 1.08097 21.3556 0.65901C20.9431 0.237053 20.3835 0 19.8 0Z" fill="white"/>
</svg>
