<svg width="248" height="248" viewBox="0 0 248 248" fill="none" xmlns="http://www.w3.org/2000/svg">
<rect x="124.537" width="175.364" height="175.364" rx="32" transform="rotate(45.248 124.537 0)" fill="url(#paint0_linear)"/>
<path d="M100.525 113.599L98.1866 132.557L99.1081 130.634C99.5164 129.811 100.951 127.909 103.411 124.93C103.423 124.65 104.972 122.24 108.059 117.699L110.555 115.001L111.896 113.096C113.726 111.772 115.248 111.135 116.46 111.186C118.994 110.919 121.667 111.778 124.479 113.765C125.128 113.886 125.938 114.62 126.908 115.969C128.443 117.248 129.07 119.002 128.789 121.233C128.781 121.419 128.723 121.697 128.614 122.066C126.231 136.539 124.869 146.71 124.529 152.581C124.193 158.359 124.455 163.228 125.316 167.187C125.925 170.482 124.617 172.716 121.392 173.888C120.529 174.413 119.219 174.451 117.463 174.003C115.878 173.937 114.675 173.653 113.856 173.151C113.125 172.747 112.372 171.781 111.595 170.254L111.014 167.427C110.672 166.665 110.529 165.632 110.584 164.326L110.194 160.246C110.296 160.064 110.393 158.853 110.487 156.615L110.78 152.984C110.555 151.667 110.709 149.105 111.243 145.297L111.776 139.294L111.923 135.797C112.028 135.521 111.775 134.857 111.166 133.804C108.663 135.567 105.696 141.701 102.265 152.206L98.158 163.243C96.2287 169.141 94.2751 172.282 92.2972 172.666L90.7468 172.881C89.4413 172.826 87.6852 172.378 85.4785 171.538C83.7891 169.505 82.9855 167.51 83.0678 165.552C83.27 165.187 83.3342 164.769 83.2606 164.299C83.0318 163.075 83.1956 161.4 83.752 159.275C83.6705 158.991 83.6395 158.616 83.6591 158.15L83.8872 156.058C83.7203 155.584 83.5886 154.27 83.4923 152.118C83.3998 149.872 83.4704 148.193 83.7039 147.082C83.5331 146.701 83.8657 145.454 84.7019 143.341C84.0029 142.19 83.6362 140.914 83.6017 139.511C83.3894 135.672 83.3691 132.822 83.5407 130.961C83.8095 129.011 83.9792 127.196 84.0497 125.518C83.9338 123.831 83.9714 121.824 84.1626 119.497L85.618 108.208L86.9381 100.137C86.9655 99.4838 86.7735 98.4948 86.3621 97.1697C86.0479 95.7553 86.0232 94.1195 86.2881 92.2623C86.553 90.4051 86.7885 89.2473 86.9946 88.7889C87.2979 88.2411 87.7297 86.8581 88.29 84.6396C88.3684 82.7746 88.6137 81.3837 89.0259 80.4668L89.9709 77.9843C90.0916 77.3355 91.349 76.3141 93.7429 74.92L95.2816 74.9847C98.9066 75.4173 101.539 76.1351 103.178 77.1382C103.905 77.6358 104.022 79.2755 103.532 82.0574C103.181 85.9661 102.939 88.3847 102.807 89.3133C102.674 90.2419 102.27 94.2885 101.596 101.453C100.921 108.618 100.564 112.666 100.525 113.599ZM152.249 82.4234C158.497 82.686 162.827 84.1291 165.239 86.7527C165.172 88.3379 163.964 91.51 161.616 96.2689C161.176 97.8385 160.517 99.0719 159.639 99.9692L157.744 101.711C157.266 101.971 156.794 102.092 156.327 102.072C152.935 102.77 150.351 102.008 148.577 99.7845C148.227 99.2093 147.778 98.7701 147.231 98.4668C146.776 98.1675 146.438 97.3125 146.218 95.902C145.429 94.6545 145.049 93.7043 145.076 93.0516C145.133 87.2622 147.384 83.7136 151.829 82.4057L152.249 82.4234ZM149.742 115.387C150.695 114.96 152.866 115.519 156.258 117.062C156.615 117.451 157.159 117.847 157.889 118.252L160.051 120.164C160.408 120.553 160.569 121.167 160.534 122.006L160.017 134.315C159.938 136.18 159.774 137.855 159.525 139.339L159.49 140.178C159.05 143.99 158.92 152.625 159.102 166.085C159.272 168.708 158.599 170.268 157.084 170.764C155.498 170.698 154.482 170.421 154.036 169.936C153.67 169.733 153.348 169.626 153.068 169.615L152.089 169.574L151.238 169.818C150.958 169.806 150.453 169.598 149.723 169.194C148.997 168.696 148.503 168.208 148.243 167.73C148.076 167.256 147.715 166.961 147.159 166.844C146.149 166.428 145.619 165.705 145.569 164.675C144.369 162.103 143.733 160.581 143.659 160.111C143.679 159.645 143.56 159.126 143.304 158.555L143.116 146.356C143.175 144.958 143.313 143.889 143.531 143.151L143.672 139.794C143.809 138.772 143.98 136.911 144.187 134.211C144.398 131.417 144.632 129.185 144.889 127.514C144.804 125.082 144.78 123.446 144.815 122.607C144.85 121.767 144.922 121.163 145.031 120.794C144.049 119.725 144.154 118.328 145.347 116.604C146.599 115.722 147.784 115.305 148.903 115.352L149.742 115.387Z" fill="white"/>
<defs>
<linearGradient id="paint0_linear" x1="124.537" y1="87.6821" x2="299.901" y2="87.6821" gradientUnits="userSpaceOnUse">
<stop stop-color="#A9829E"/>
<stop offset="1" stop-color="#93DBF1"/>
</linearGradient>
</defs>
</svg>
