<svg width="20" height="20" viewBox="0 0 20 20" fill="none" xmlns="http://www.w3.org/2000/svg">
<path fill-rule="evenodd" clip-rule="evenodd" d="M6.22084 0.888336C7.19834 0.843336 7.51001 0.833336 10 0.833336C12.49 0.833336 12.8017 0.844169 13.7783 0.888336C14.755 0.932503 15.4217 1.08834 16.005 1.31417C16.6158 1.545 17.17 1.90584 17.6283 2.3725C18.095 2.83 18.455 3.38334 18.685 3.995C18.9117 4.57834 19.0667 5.245 19.1117 6.22C19.1567 7.19917 19.1667 7.51084 19.1667 10C19.1667 12.49 19.1558 12.8017 19.1117 13.7792C19.0675 14.7542 18.9117 15.4208 18.685 16.0042C18.455 16.6159 18.0944 17.1702 17.6283 17.6283C17.17 18.095 16.6158 18.455 16.005 18.685C15.4217 18.9117 14.755 19.0667 13.78 19.1117C12.8017 19.1567 12.49 19.1667 10 19.1667C7.51001 19.1667 7.19834 19.1558 6.22084 19.1117C5.24584 19.0675 4.57918 18.9117 3.99584 18.685C3.38411 18.455 2.82986 18.0944 2.37168 17.6283C1.90533 17.1706 1.54444 16.6166 1.31418 16.005C1.08834 15.4217 0.933343 14.755 0.888343 13.78C0.843343 12.8008 0.833344 12.4892 0.833344 10C0.833344 7.51 0.844177 7.19834 0.888343 6.22167C0.93251 5.245 1.08834 4.57834 1.31418 3.995C1.54478 3.3834 1.90594 2.82943 2.37251 2.37167C2.83004 1.90542 3.38374 1.54454 3.99501 1.31417C4.57834 1.08834 5.24501 0.933336 6.22001 0.888336H6.22084ZM13.7042 2.53834C12.7375 2.49417 12.4475 2.485 10 2.485C7.55251 2.485 7.26251 2.49417 6.29584 2.53834C5.40168 2.57917 4.91668 2.72834 4.59334 2.85417C4.16584 3.02084 3.86001 3.21834 3.53918 3.53917C3.23505 3.83505 3.00099 4.19524 2.85418 4.59334C2.72834 4.91667 2.57918 5.40167 2.53834 6.29584C2.49418 7.2625 2.48501 7.5525 2.48501 10C2.48501 12.4475 2.49418 12.7375 2.53834 13.7042C2.57918 14.5983 2.72834 15.0833 2.85418 15.4067C3.00084 15.8042 3.23501 16.165 3.53918 16.4608C3.83501 16.765 4.19584 16.9992 4.59334 17.1458C4.91668 17.2717 5.40168 17.4208 6.29584 17.4617C7.26251 17.5058 7.55168 17.515 10 17.515C12.4483 17.515 12.7375 17.5058 13.7042 17.4617C14.5983 17.4208 15.0833 17.2717 15.4067 17.1458C15.8342 16.9792 16.14 16.7817 16.4608 16.4608C16.765 16.165 16.9992 15.8042 17.1458 15.4067C17.2717 15.0833 17.4208 14.5983 17.4617 13.7042C17.5058 12.7375 17.515 12.4475 17.515 10C17.515 7.5525 17.5058 7.2625 17.4617 6.29584C17.4208 5.40167 17.2717 4.91667 17.1458 4.59334C16.9792 4.16584 16.7817 3.86 16.4608 3.53917C16.1649 3.23506 15.8048 3.00101 15.4067 2.85417C15.0833 2.72834 14.5983 2.57917 13.7042 2.53834ZM8.82918 12.8258C9.48306 13.098 10.2112 13.1348 10.8891 12.9298C11.5671 12.7248 12.1528 12.2908 12.5464 11.7019C12.9399 11.113 13.1167 10.4057 13.0467 9.70092C12.9767 8.99612 12.6642 8.33748 12.1625 7.8375C11.8427 7.5179 11.456 7.27318 11.0303 7.12096C10.6046 6.96874 10.1504 6.9128 9.70042 6.95718C9.25048 7.00156 8.81597 7.14515 8.42818 7.37761C8.04039 7.61007 7.70896 7.92562 7.45776 8.30154C7.20656 8.67747 7.04183 9.10441 6.97544 9.55164C6.90905 9.99886 6.94264 10.4552 7.07379 10.8879C7.20495 11.3206 7.43041 11.7188 7.73394 12.0539C8.03748 12.389 8.41153 12.6527 8.82918 12.8258ZM6.66834 6.66833C7.10586 6.23081 7.62528 5.88375 8.19692 5.64697C8.76857 5.41019 9.38126 5.28831 10 5.28831C10.6188 5.28831 11.2314 5.41019 11.8031 5.64697C12.3747 5.88375 12.8942 6.23081 13.3317 6.66833C13.7692 7.10586 14.1163 7.62527 14.353 8.19692C14.5898 8.76857 14.7117 9.38125 14.7117 10C14.7117 10.6187 14.5898 11.2314 14.353 11.8031C14.1163 12.3747 13.7692 12.8941 13.3317 13.3317C12.4481 14.2153 11.2496 14.7117 10 14.7117C8.75039 14.7117 7.55196 14.2153 6.66834 13.3317C5.78473 12.4481 5.28832 11.2496 5.28832 10C5.28832 8.75038 5.78473 7.55195 6.66834 6.66833ZM15.7567 5.99C15.8651 5.88773 15.9519 5.76474 16.0119 5.62831C16.072 5.49189 16.104 5.34481 16.1062 5.19578C16.1084 5.04674 16.0806 4.89879 16.0246 4.76068C15.9685 4.62256 15.8854 4.49709 15.78 4.3917C15.6746 4.28631 15.5491 4.20313 15.411 4.1471C15.2729 4.09107 15.1249 4.06332 14.9759 4.06549C14.8269 4.06766 14.6798 4.09971 14.5434 4.15975C14.4069 4.21978 14.284 4.30658 14.1817 4.415C13.9828 4.62586 13.8739 4.90594 13.8781 5.19578C13.8823 5.48562 13.9993 5.7624 14.2043 5.96737C14.4093 6.17234 14.6861 6.28936 14.9759 6.29358C15.2657 6.29781 15.5458 6.18891 15.7567 5.99Z" fill="white"/>
</svg>
