<svg width="20" height="20" viewBox="0 0 20 20" fill="none" xmlns="http://www.w3.org/2000/svg">
<path fill-rule="evenodd" clip-rule="evenodd" d="M0.833344 2.365C0.833344 1.95877 0.994715 1.56919 1.28196 1.28195C1.5692 0.994702 1.95879 0.83333 2.36501 0.83333H17.6333C17.8347 0.833001 18.0341 0.872383 18.2201 0.949219C18.4062 1.02606 18.5753 1.13884 18.7177 1.28111C18.8601 1.42338 18.9731 1.59235 19.0501 1.77834C19.1272 1.96433 19.1668 2.16368 19.1667 2.365V17.6333C19.1669 17.8347 19.1274 18.0341 19.0505 18.2202C18.9736 18.4063 18.8607 18.5753 18.7184 18.7178C18.576 18.8602 18.407 18.9731 18.221 19.0502C18.0349 19.1272 17.8355 19.1668 17.6342 19.1667H2.36501C2.1638 19.1667 1.96456 19.127 1.77867 19.05C1.59279 18.973 1.4239 18.8601 1.28166 18.7178C1.13942 18.5754 1.02662 18.4065 0.949696 18.2206C0.872771 18.0346 0.833234 17.8354 0.833344 17.6342V2.365ZM8.09001 7.82333H10.5725V9.07C10.9308 8.35333 11.8475 7.70833 13.225 7.70833C15.8658 7.70833 16.4917 9.13583 16.4917 11.755V16.6067H13.8192V12.3517C13.8192 10.86 13.4608 10.0183 12.5508 10.0183C11.2883 10.0183 10.7633 10.9258 10.7633 12.3517V16.6067H8.09001V7.82333ZM3.50668 16.4925H6.18001V7.70833H3.50668V16.4917V16.4925ZM6.56251 4.84333C6.56755 5.07222 6.52682 5.29982 6.44271 5.51276C6.3586 5.7257 6.2328 5.91969 6.0727 6.08336C5.9126 6.24702 5.72143 6.37706 5.51039 6.46584C5.29935 6.55461 5.07271 6.60035 4.84376 6.60035C4.61481 6.60035 4.38817 6.55461 4.17713 6.46584C3.9661 6.37706 3.77492 6.24702 3.61482 6.08336C3.45472 5.91969 3.32892 5.7257 3.24481 5.51276C3.1607 5.29982 3.11997 5.07222 3.12501 4.84333C3.1349 4.39404 3.32033 3.96649 3.64158 3.65224C3.96283 3.33798 4.39436 3.16201 4.84376 3.16201C5.29316 3.16201 5.72469 3.33798 6.04594 3.65224C6.36719 3.96649 6.55262 4.39404 6.56251 4.84333Z" fill="white"/>
</svg>
