<svg width="114" height="188" viewBox="0 0 114 188" fill="none" xmlns="http://www.w3.org/2000/svg">
<rect y="0.382172" width="111.287" height="123.459" rx="8" fill="white"/>
<path d="M45.9166 73.4955C45.9166 74.5434 45.6059 75.5677 45.0237 76.439C44.4416 77.3102 43.6141 77.9893 42.646 78.3903C41.6779 78.7913 40.6127 78.8962 39.5849 78.6918C38.5572 78.4874 37.6132 77.9828 36.8722 77.2418C36.1313 76.5009 35.6267 75.5569 35.4223 74.5291C35.2178 73.5014 35.3228 72.4362 35.7238 71.4681C36.1248 70.5 36.8038 69.6725 37.6751 69.0904C38.5463 68.5082 39.5707 68.1975 40.6185 68.1975C42.0232 68.199 43.3699 68.7577 44.3632 69.7509C45.3564 70.7442 45.9151 72.0909 45.9166 73.4955ZM72.4069 68.1975C71.3591 68.1975 70.3348 68.5082 69.4635 69.0904C68.5922 69.6725 67.9132 70.5 67.5122 71.4681C67.1112 72.4362 67.0062 73.5014 67.2107 74.5291C67.4151 75.5569 67.9197 76.5009 68.6606 77.2418C69.4016 77.9828 70.3456 78.4874 71.3733 78.6918C72.4011 78.8962 73.4663 78.7913 74.4344 78.3903C75.4025 77.9893 76.23 77.3102 76.8121 76.439C77.3943 75.5677 77.705 74.5434 77.705 73.4955C77.7035 72.0909 77.1448 70.7442 76.1516 69.7509C75.1583 68.7577 73.8116 68.199 72.4069 68.1975ZM105.961 39.9411V75.2616C105.952 83.6895 102.6 91.7695 96.6403 97.7289C90.6809 103.688 82.6009 107.041 74.173 107.05H38.8525C30.4246 107.041 22.3446 103.688 16.3852 97.7289C10.4257 91.7695 7.07356 83.6895 7.06409 75.2616V39.9411C7.06407 36.5021 8.31828 33.1812 10.5916 30.6008C12.865 28.0205 16.0014 26.3578 19.413 25.9245C22.8245 25.4912 26.277 26.317 29.1232 28.2472C31.9694 30.1773 34.014 33.0793 34.8737 36.4091H78.1518C79.0115 33.0793 81.056 30.1773 83.9023 28.2472C86.7485 26.317 90.201 25.4912 93.6125 25.9245C97.0241 26.3578 100.16 28.0205 102.434 30.6008C104.707 33.1812 105.961 36.5021 105.961 39.9411ZM88.3011 71.7295C88.3011 67.9825 86.8126 64.3889 84.1631 61.7394C81.5135 59.0898 77.92 57.6013 74.173 57.6013H38.8525C35.1055 57.6013 31.5119 59.0898 28.8624 61.7394C26.2128 64.3889 24.7243 67.9825 24.7243 71.7295V75.2616C24.7243 79.0086 26.2128 82.6021 28.8624 85.2517C31.5119 87.9012 35.1055 89.3897 38.8525 89.3897H74.173C77.92 89.3897 81.5135 87.9012 84.1631 85.2517C86.8126 82.6021 88.3011 79.0086 88.3011 75.2616V71.7295Z" fill="#FFDA48"/>
<path d="M53.017 164.177C53.017 169.284 53.299 171.838 53.863 171.838C54.427 171.838 55.179 171.196 56.119 169.911C57.0903 168.595 58.0303 166.919 58.939 164.882C59.879 162.814 60.443 161.78 60.631 161.78C60.8503 161.78 60.96 161.905 60.96 162.156C60.96 163.033 60.4273 164.631 59.362 166.95C57.0747 171.807 55.0223 174.235 53.205 174.235C52.5157 174.235 51.889 174.157 51.325 174C50.761 173.812 50.4163 173.64 50.291 173.483C49.9777 173.107 49.821 171.728 49.821 169.347C49.821 163.707 50.009 159.132 50.385 155.623C48.5677 157.409 46.907 159.446 45.403 161.733C46.061 164.24 46.39 166.417 46.39 168.266C46.39 170.083 46.0297 171.493 45.309 172.496C44.6197 173.499 43.7423 174 42.677 174C41.3923 174 40.75 172.762 40.75 170.287C40.75 168.595 41.4237 166.355 42.771 163.566C42.1443 161.373 41.2357 159.226 40.045 157.127C39.5437 159.978 38.776 162.892 37.742 165.869C36.708 168.846 35.6427 171.07 34.546 172.543C33.4493 173.984 32.149 174.705 30.645 174.705C29.5483 174.705 29 174.282 29 173.436C29 172.747 29.235 172.261 29.705 171.979C30.175 171.697 30.7233 171.493 31.35 171.368C32.008 171.211 32.431 171.039 32.619 170.851C33.841 169.566 34.9847 167.373 36.05 164.271C37.1467 161.169 37.9457 157.989 38.447 154.73C37.0997 152.975 36.426 151.675 36.426 150.829C36.426 149.952 36.6453 149.184 37.084 148.526C37.554 147.868 38.306 147.539 39.34 147.539C39.6533 147.539 39.9197 147.946 40.139 148.761C40.3583 149.544 40.468 150.375 40.468 151.252C42.3793 154.041 43.8363 156.923 44.839 159.9C46.5937 157.017 48.599 154.354 50.855 151.91C51.8263 145.988 52.9543 143.027 54.239 143.027C54.6777 143.027 55.132 143.356 55.602 144.014C56.1033 144.672 56.354 145.346 56.354 146.035C56.354 148.166 55.4297 150.328 53.581 152.521C53.205 155.184 53.017 159.07 53.017 164.177ZM43.241 165.587C42.489 167.248 42.113 168.736 42.113 170.052C42.113 171.337 42.2697 171.979 42.583 171.979C42.8963 171.979 43.1313 171.603 43.288 170.851C43.4447 170.068 43.523 169.253 43.523 168.407C43.523 167.561 43.429 166.621 43.241 165.587ZM65.3483 174.235C63.5936 174.235 62.1993 173.577 61.1653 172.261C60.1313 170.914 59.6143 169.394 59.6143 167.702C59.6143 164.287 60.3349 161.702 61.7763 159.947C63.2176 158.192 65.0819 157.315 67.3693 157.315C68.4346 157.315 69.3119 157.613 70.0013 158.208C70.6906 158.772 71.0353 159.555 71.0353 160.558C71.0353 162.438 70.2363 164.02 68.6383 165.305C67.0716 166.558 65.1446 167.216 62.8573 167.279C62.9826 168.501 63.3899 169.566 64.0793 170.475C64.7999 171.352 65.6303 171.791 66.5703 171.791C67.5103 171.791 68.3563 171.572 69.1083 171.133C69.8603 170.694 70.5496 170.068 71.1763 169.253C72.4923 167.53 73.6203 165.571 74.5603 163.378C74.8109 162.814 74.9989 162.407 75.1243 162.156C75.2809 161.905 75.4376 161.78 75.5943 161.78C75.7823 161.78 75.8763 161.905 75.8763 162.156C75.8763 163.723 74.9206 166.073 73.0093 169.206C70.9413 172.559 68.3876 174.235 65.3483 174.235ZM62.8573 166.151C64.7059 165.838 66.0533 165.242 66.8993 164.365C67.7766 163.488 68.2153 162.344 68.2153 160.934C68.2153 159.524 67.7609 158.819 66.8523 158.819C65.7556 158.819 64.8313 159.587 64.0793 161.122C63.3273 162.626 62.9199 164.302 62.8573 166.151Z" fill="white"/>
</svg>
