<svg width="173" height="68" viewBox="0 0 173 68" fill="none" xmlns="http://www.w3.org/2000/svg">
<path d="M50.8961 45.309C50.8961 56.067 51.4901 61.446 52.6781 61.446C53.8661 61.446 55.4501 60.093 57.4301 57.387C59.4761 54.615 61.4561 51.084 63.3701 46.794C65.3501 42.438 66.5381 40.26 66.9341 40.26C67.3961 40.26 67.6271 40.524 67.6271 41.052C67.6271 42.9 66.5051 46.266 64.2611 51.15C59.4431 61.38 55.1201 66.495 51.2921 66.495C49.8401 66.495 48.5201 66.33 47.3321 66C46.1441 65.604 45.4181 65.241 45.1541 64.911C44.4941 64.119 44.1641 61.215 44.1641 56.199C44.1641 44.319 44.5601 34.683 45.3521 27.291C41.5241 31.053 38.0261 35.343 34.8581 40.161C36.2441 45.441 36.9371 50.028 36.9371 53.922C36.9371 57.75 36.1781 60.72 34.6601 62.832C33.2081 64.944 31.3601 66 29.1161 66C26.4101 66 25.0571 63.393 25.0571 58.179C25.0571 54.615 26.4761 49.896 29.3141 44.022C27.9941 39.402 26.0801 34.881 23.5721 30.459C22.5161 36.465 20.8991 42.603 18.7211 48.873C16.5431 55.143 14.2991 59.829 11.9891 62.931C9.67913 65.967 6.94013 67.485 3.77213 67.485C1.46213 67.485 0.307129 66.594 0.307129 64.812C0.307129 63.36 0.802129 62.337 1.79213 61.743C2.78213 61.149 3.93713 60.72 5.25713 60.456C6.64313 60.126 7.53413 59.763 7.93013 59.367C10.5041 56.661 12.9131 52.041 15.1571 45.507C17.4671 38.973 19.1501 32.274 20.2061 25.41C17.3681 21.714 15.9491 18.975 15.9491 17.193C15.9491 15.345 16.4111 13.728 17.3351 12.342C18.3251 10.956 19.9091 10.263 22.0871 10.263C22.7471 10.263 23.3081 11.121 23.7701 12.837C24.2321 14.487 24.4631 16.236 24.4631 18.084C28.4891 23.958 31.5581 30.03 33.6701 36.3C37.3661 30.228 41.5901 24.618 46.3421 19.47C48.3881 6.996 50.7641 0.758996 53.4701 0.758996C54.3941 0.758996 55.3511 1.452 56.3411 2.838C57.3971 4.224 57.9251 5.643 57.9251 7.095C57.9251 11.583 55.9781 16.137 52.0841 20.757C51.2921 26.367 50.8961 34.551 50.8961 45.309ZM30.3041 48.279C28.7201 51.777 27.9281 54.912 27.9281 57.684C27.9281 60.39 28.2581 61.743 28.9181 61.743C29.5781 61.743 30.0731 60.951 30.4031 59.367C30.7331 57.717 30.8981 56.001 30.8981 54.219C30.8981 52.437 30.7001 50.457 30.3041 48.279ZM76.8705 66.495C73.1745 66.495 70.2375 65.109 68.0595 62.337C65.8815 59.499 64.7925 56.298 64.7925 52.734C64.7925 45.54 66.3105 40.095 69.3465 36.399C72.3825 32.703 76.3095 30.855 81.1275 30.855C83.3715 30.855 85.2195 31.482 86.6715 32.736C88.1235 33.924 88.8495 35.574 88.8495 37.686C88.8495 41.646 87.1665 44.979 83.8005 47.685C80.5005 50.325 76.4415 51.711 71.6235 51.843C71.8875 54.417 72.7455 56.661 74.1975 58.575C75.7155 60.423 77.4645 61.347 79.4445 61.347C81.4245 61.347 83.2065 60.885 84.7905 59.961C86.3745 59.037 87.8265 57.717 89.1465 56.001C91.9185 52.371 94.2945 48.246 96.2745 43.626C96.8025 42.438 97.1985 41.58 97.4625 41.052C97.7925 40.524 98.1225 40.26 98.4525 40.26C98.8485 40.26 99.0465 40.524 99.0465 41.052C99.0465 44.352 97.0335 49.302 93.0075 55.902C88.6515 62.964 83.2725 66.495 76.8705 66.495ZM71.6235 49.467C75.5175 48.807 78.3555 47.553 80.1375 45.705C81.9855 43.857 82.9095 41.448 82.9095 38.478C82.9095 35.508 81.9525 34.023 80.0385 34.023C77.7285 34.023 75.7815 35.64 74.1975 38.874C72.6135 42.042 71.7555 45.573 71.6235 49.467ZM101.518 60.654L101.617 63.723C101.617 65.571 101.089 66.495 100.033 66.495C98.4494 66.495 96.9314 66.297 95.4794 65.901C94.0274 65.439 93.3014 64.845 93.3014 64.119C93.3014 63.327 93.4664 60.72 93.7964 56.298C94.1924 51.81 94.3904 48.444 94.3904 46.2V40.359C94.3904 37.191 94.7204 35.277 95.3804 34.617C96.0404 33.957 97.1954 33 98.8454 31.746C100.561 30.492 101.782 29.865 102.508 29.865C103.3 29.865 103.795 29.997 103.993 30.261C104.191 30.525 104.29 31.02 104.29 31.746C104.29 35.244 103.63 38.544 102.31 41.646C101.98 45.408 101.815 48.015 101.815 49.467C102.079 49.071 103.465 46.827 105.973 42.735C108.481 38.643 110.593 35.64 112.309 33.726C114.091 31.812 115.675 30.855 117.061 30.855C118.447 30.855 119.668 31.317 120.724 32.241C121.846 33.165 122.407 34.32 122.407 35.706C122.407 38.61 122.077 42.9 121.417 48.576C120.823 54.186 120.526 57.75 120.526 59.268C120.526 60.72 120.724 61.446 121.12 61.446C122.242 61.38 123.793 59.994 125.773 57.288C127.753 54.516 129.7 50.985 131.614 46.695C133.594 42.405 134.782 40.26 135.178 40.26C135.64 40.26 135.871 40.524 135.871 41.052C135.871 42.9 134.914 45.837 133 49.863C127.786 60.951 123.397 66.495 119.833 66.495C117.259 66.495 115.312 65.967 113.992 64.911C113.53 64.449 113.299 63.261 113.299 61.347C113.299 59.367 113.464 56.199 113.794 51.843C114.19 47.421 114.388 44.121 114.388 41.943C114.388 39.765 113.992 38.676 113.2 38.676C112.474 38.676 110.494 40.953 107.26 45.507C104.026 49.995 102.31 52.866 102.112 54.12C101.716 56.43 101.518 58.608 101.518 60.654ZM130.535 57.387L131.129 46.299C131.129 39.237 131.459 35.376 132.119 34.716C132.779 34.056 133.934 33.099 135.584 31.845C137.3 30.525 138.521 29.865 139.247 29.865C140.039 29.865 140.534 29.997 140.732 30.261C140.93 30.525 141.029 31.053 141.029 31.845C141.029 34.683 140.402 37.554 139.148 40.458C138.158 46.53 137.663 51.513 137.663 55.407C137.663 59.301 138.29 61.248 139.544 61.248C141.062 61.248 142.844 59.928 144.89 57.288C146.936 54.648 148.982 50.721 151.028 45.507C151.622 38.907 152.084 35.343 152.414 34.815C152.81 34.287 153.734 33.33 155.186 31.944C156.638 30.558 157.826 29.865 158.75 29.865C159.74 29.865 160.235 31.119 160.235 33.627C160.235 34.287 160.037 35.574 159.641 37.488C159.311 39.402 158.915 40.788 158.453 41.646C157.727 43.494 157.364 49.203 157.364 58.773C157.364 60.555 157.562 61.446 157.958 61.446C159.08 61.38 160.631 59.994 162.611 57.288C164.591 54.516 166.538 50.985 168.452 46.695C170.432 42.405 171.62 40.26 172.016 40.26C172.478 40.26 172.709 40.524 172.709 41.052C172.709 42.9 171.752 45.837 169.838 49.863C164.624 60.951 160.235 66.495 156.671 66.495C154.097 66.495 152.15 65.967 150.83 64.911C150.368 64.449 150.137 63.03 150.137 60.654C150.137 58.278 150.236 55.638 150.434 52.734C148.322 57.222 146.21 60.654 144.098 63.03C141.986 65.34 139.61 66.495 136.97 66.495C134.396 66.495 132.68 65.802 131.822 64.416C130.964 63.03 130.535 60.687 130.535 57.387Z" fill="white"/>
</svg>
