<svg width="118" height="208" viewBox="0 0 118 208" fill="none" xmlns="http://www.w3.org/2000/svg">
<rect x="3.71338" width="111.287" height="123.459" rx="8" fill="white"/>
<g clip-path="url(#clip0)">
<path d="M52.4011 29.5605C52.4011 34.1722 50.5691 38.5951 47.3081 41.8561C44.0471 45.117 39.6243 46.949 35.0125 46.949C30.4008 46.949 25.978 45.117 22.717 41.8561C19.456 38.5951 17.624 34.1722 17.624 29.5605C17.624 24.9488 19.456 20.5259 22.717 17.265C25.978 14.004 30.4008 12.172 35.0125 12.172C39.6243 12.172 44.0471 14.004 47.3081 17.265C50.5691 20.5259 52.4011 24.9488 52.4011 29.5605ZM81.7877 57.7508C81.1354 57.4241 80.3969 57.3107 79.6767 57.4268C78.9565 57.5429 78.291 57.8825 77.7744 58.3977L51.9698 91.1577L33.4684 71.8772C32.8004 71.4325 31.9992 71.2325 31.2005 71.3111C30.4019 71.3897 29.655 71.7421 29.0865 72.3085L3.72709 102.592V116.503C3.72709 118.348 4.45989 120.117 5.76429 121.421C7.06868 122.726 8.83782 123.459 10.6825 123.459H108.058C108.972 123.459 109.876 123.279 110.72 122.929C111.564 122.58 112.331 122.067 112.977 121.421C113.622 120.776 114.135 120.009 114.484 119.165C114.834 118.321 115.014 117.417 115.014 116.503V85.2038L81.7877 57.7508Z" fill="#FFDA48"/>
</g>
<path d="M24.017 182.177C24.017 187.284 24.299 189.838 24.863 189.838C25.427 189.838 26.179 189.196 27.119 187.911C28.0903 186.595 29.0303 184.919 29.939 182.882C30.879 180.814 31.443 179.78 31.631 179.78C31.8503 179.78 31.96 179.905 31.96 180.156C31.96 181.033 31.4273 182.631 30.362 184.95C28.0747 189.807 26.0223 192.235 24.205 192.235C23.5157 192.235 22.889 192.157 22.325 192C21.761 191.812 21.4163 191.64 21.291 191.483C20.9777 191.107 20.821 189.728 20.821 187.347C20.821 181.707 21.009 177.132 21.385 173.623C19.5677 175.409 17.907 177.446 16.403 179.733C17.061 182.24 17.39 184.417 17.39 186.266C17.39 188.083 17.0297 189.493 16.309 190.496C15.6197 191.499 14.7423 192 13.677 192C12.3923 192 11.75 190.762 11.75 188.287C11.75 186.595 12.4237 184.355 13.771 181.566C13.1443 179.373 12.2357 177.226 11.045 175.127C10.5437 177.978 9.776 180.892 8.742 183.869C7.708 186.846 6.64267 189.07 5.546 190.543C4.44933 191.984 3.149 192.705 1.645 192.705C0.548333 192.705 0 192.282 0 191.436C0 190.747 0.235 190.261 0.705 189.979C1.175 189.697 1.72333 189.493 2.35 189.368C3.008 189.211 3.431 189.039 3.619 188.851C4.841 187.566 5.98467 185.373 7.05 182.271C8.14667 179.169 8.94567 175.989 9.447 172.73C8.09967 170.975 7.426 169.675 7.426 168.829C7.426 167.952 7.64533 167.184 8.084 166.526C8.554 165.868 9.306 165.539 10.34 165.539C10.6533 165.539 10.9197 165.946 11.139 166.761C11.3583 167.544 11.468 168.375 11.468 169.252C13.3793 172.041 14.8363 174.923 15.839 177.9C17.5937 175.017 19.599 172.354 21.855 169.91C22.8263 163.988 23.9543 161.027 25.239 161.027C25.6777 161.027 26.132 161.356 26.602 162.014C27.1033 162.672 27.354 163.346 27.354 164.035C27.354 166.166 26.4297 168.328 24.581 170.521C24.205 173.184 24.017 177.07 24.017 182.177ZM14.241 183.587C13.489 185.248 13.113 186.736 13.113 188.052C13.113 189.337 13.2697 189.979 13.583 189.979C13.8963 189.979 14.1313 189.603 14.288 188.851C14.4447 188.068 14.523 187.253 14.523 186.407C14.523 185.561 14.429 184.621 14.241 183.587ZM30.6143 187.911L30.8963 182.647C30.8963 179.294 31.0529 177.461 31.3663 177.148C31.6796 176.835 32.2279 176.38 33.0113 175.785C33.8259 175.158 34.4056 174.845 34.7503 174.845C35.1263 174.845 35.3613 174.908 35.4553 175.033C35.5493 175.158 35.5963 175.409 35.5963 175.785C35.5963 177.132 35.2986 178.495 34.7033 179.874C34.2333 182.757 33.9983 185.122 33.9983 186.971C33.9983 188.82 34.2176 189.744 34.6563 189.744C35.4083 189.744 36.2699 189.086 37.2413 187.77C38.2439 186.423 39.2623 184.449 40.2963 181.848C40.3276 181.159 40.3589 180.438 40.3903 179.686C40.4216 178.903 40.4529 178.339 40.4843 177.994C40.5156 177.618 40.5313 177.352 40.5313 177.195C40.5626 177.038 41.0013 176.615 41.8473 175.926C42.6933 175.205 43.3356 174.845 43.7743 174.845C44.2443 174.845 44.4793 175.44 44.4793 176.631C44.4793 176.944 44.3853 177.555 44.1973 178.464C44.0406 179.373 43.8526 180.031 43.6333 180.438C43.3826 182.663 43.2103 184.605 43.1163 186.266C46.1869 182.381 47.8163 180.328 48.0043 180.109C48.2236 179.89 48.4116 179.78 48.5683 179.78C48.8816 179.78 49.0383 179.937 49.0383 180.25C49.0383 180.438 48.9756 180.642 48.8503 180.861C47.8476 182.334 45.8736 184.919 42.9283 188.616C42.7403 192.345 42.6149 194.883 42.5523 196.23C42.3956 200.209 41.8316 202.998 40.8603 204.596C39.9203 206.225 38.2283 207.04 35.7843 207.04C34.7189 207.04 33.7163 206.711 32.7763 206.053C31.8676 205.426 31.4133 204.314 31.4133 202.716C31.4133 201.149 32.0086 199.536 33.1993 197.875C34.4213 196.214 36.6303 193.661 39.8263 190.214L40.1083 185.091C39.0429 187.441 37.9933 189.227 36.9593 190.449C35.9253 191.64 34.7816 192.235 33.5283 192.235C32.2749 192.235 31.4759 191.922 31.1313 191.295C30.7866 190.668 30.6143 189.54 30.6143 187.911ZM39.6853 192.423C36.1133 196.277 34.3273 199.363 34.3273 201.682C34.3273 202.747 34.5153 203.625 34.8913 204.314C35.2673 205.003 35.7843 205.348 36.4423 205.348C37.4449 205.348 38.1499 204.8 38.5573 203.703C38.9646 202.606 39.2623 200.382 39.4503 197.029L39.6853 192.423ZM75.0212 189.838C75.5852 189.838 76.3372 189.196 77.2772 187.911C78.2172 186.595 79.1415 184.919 80.0502 182.882C80.9902 180.814 81.5542 179.78 81.7422 179.78C81.9615 179.78 82.0712 179.905 82.0712 180.156C82.0712 181.033 81.6168 182.428 80.7082 184.339C78.2328 189.603 76.1335 192.235 74.4102 192.235C72.9688 192.235 71.9348 191.984 71.3082 191.483C71.0262 191.201 70.8852 188.224 70.8852 182.553L63.1772 183.117C62.5818 184.746 62.0492 186.376 61.5792 188.005C61.1092 189.634 60.7958 190.637 60.6392 191.013C60.2945 191.828 59.4642 192.235 58.1482 192.235C57.2708 192.235 56.8322 191.859 56.8322 191.107C56.8322 190.355 57.4275 189.258 58.6182 187.817C58.8375 187.535 59.5582 186.015 60.7802 183.258C60.3415 183.289 59.9185 183.305 59.5112 183.305C58.4145 183.305 57.8662 182.835 57.8662 181.895C57.8662 181.049 58.3048 180.626 59.1822 180.626C59.2448 180.626 60.1378 180.704 61.8612 180.861C62.3312 179.764 62.8325 178.683 63.3652 177.618C67.4698 169.033 70.2898 164.74 71.8252 164.74C72.9845 164.74 73.7835 170.114 74.2222 180.861H74.6452C74.8645 180.861 74.9742 181.018 74.9742 181.331C74.9742 181.644 74.7392 181.911 74.2692 182.13C74.4572 187.269 74.7078 189.838 75.0212 189.838ZM63.8822 181.096C67.5482 181.096 69.8825 181.08 70.8852 181.049C70.8538 180.548 70.8225 179.67 70.7912 178.417C70.7598 177.164 70.7285 176.083 70.6972 175.174C70.6658 174.234 70.6345 173.263 70.6032 172.26C70.4778 170.098 70.2898 169.017 70.0392 169.017C69.6945 169.017 68.9895 170.035 67.9242 172.072C66.8588 174.109 66.0285 175.832 65.4332 177.242C64.6185 179.279 64.1015 180.563 63.8822 181.096ZM84.0441 179.733L86.6291 179.451C86.8797 179.451 87.0991 179.592 87.2871 179.874C87.4751 180.156 87.5691 180.454 87.5691 180.767C87.5691 181.08 87.4594 182.146 87.2401 183.963C87.0521 185.78 86.9581 187.222 86.9581 188.287C86.9581 189.321 87.0521 189.838 87.2401 189.838C87.7727 189.807 88.5091 189.149 89.4491 187.864C90.3891 186.548 91.3134 184.872 92.2221 182.835C93.1621 180.798 93.7261 179.78 93.9141 179.78C94.1334 179.78 94.2431 179.905 94.2431 180.156C94.2431 181.033 93.7887 182.428 92.8801 184.339C90.4047 189.603 88.3211 192.235 86.6291 192.235C85.4071 192.235 84.4827 191.984 83.8561 191.483C83.6367 191.264 83.5271 189.901 83.5271 187.394C83.5271 184.887 83.7934 182.741 84.3261 180.955C82.5087 180.955 81.2397 180.375 80.5191 179.216C80.1431 178.621 79.9551 177.947 79.9551 177.195C79.9551 176.443 80.1117 175.785 80.4251 175.221C80.7384 174.657 81.1771 174.375 81.7411 174.375C82.3364 174.375 82.8691 174.688 83.3391 175.315C83.8404 175.91 84.0911 176.584 84.0911 177.336C84.0911 178.088 83.8717 178.84 83.4331 179.592C83.5584 179.686 83.7621 179.733 84.0441 179.733ZM102.463 184.339C99.9872 189.603 97.8879 192.235 96.1646 192.235C94.4726 192.235 93.4699 192.031 93.1566 191.624C92.8746 191.217 92.7336 189.869 92.7336 187.582C92.7336 185.295 92.9529 181.989 93.3916 177.665C91.8249 177.352 90.9946 176.709 90.9006 175.738C90.9006 175.237 91.2296 174.986 91.8876 174.986C92.5456 174.986 93.1252 175.111 93.6266 175.362C93.9086 173.106 94.2376 170.819 94.6136 168.5C94.7076 167.905 95.0052 167.341 95.5066 166.808C96.0079 166.275 96.4936 166.009 96.9636 166.009C97.3709 166.009 97.5746 166.651 97.5746 167.936C97.5746 168.531 97.3552 171.273 96.9166 176.161C97.7626 176.004 98.6869 175.691 99.6896 175.221C100.724 174.751 101.335 174.516 101.523 174.516C102.087 174.516 102.369 174.688 102.369 175.033C102.4 175.346 101.82 175.785 100.63 176.349C99.4389 176.882 98.1542 177.289 96.7756 177.571C96.3996 182.146 96.2116 185.608 96.2116 187.958C96.2116 189.211 96.3996 189.838 96.7756 189.838C97.3396 189.807 98.0916 189.149 99.0316 187.864C99.9716 186.579 100.896 184.919 101.805 182.882C102.745 180.814 103.309 179.78 103.497 179.78C103.716 179.78 103.826 179.905 103.826 180.156C103.826 181.033 103.371 182.428 102.463 184.339Z" fill="white"/>
<defs>
<clipPath id="clip0">
<rect width="111.287" height="111.287" fill="white" transform="translate(3.71338 12.172)"/>
</clipPath>
</defs>
</svg>
