<svg width="131" height="47" viewBox="0 0 131 47" fill="none" xmlns="http://www.w3.org/2000/svg">
<path d="M13.2024 3.208C13.3944 3.176 13.9064 3.16 14.7384 3.16C15.6024 3.16 16.6264 3.32 17.8104 3.64C19.0264 3.928 20.1944 4.424 21.3144 5.128C22.4664 5.8 23.3784 6.808 24.0504 8.152C24.7544 9.464 25.1064 11.032 25.1064 12.856C25.1064 15.864 23.9384 18.296 21.6024 20.152C19.2664 22.008 16.1784 22.936 12.3384 22.936C12.3384 29.176 11.2344 32.296 9.02638 32.296C7.55438 32.296 6.81838 31.672 6.81838 30.424C6.81838 30.04 7.01038 29.512 7.39438 28.84C7.77838 28.168 8.05038 27.4 8.21038 26.536C8.37038 25.672 8.49838 24.28 8.59438 22.36C7.28238 21.944 6.62638 21.368 6.62638 20.632C6.62638 19.896 6.96238 19.528 7.63438 19.528C7.98638 19.528 8.33838 19.576 8.69038 19.672C9.10638 11.128 9.39438 6.408 9.55438 5.512C7.73038 5.96 6.21038 6.696 4.99438 7.72C3.81038 8.744 3.21838 9.96 3.21838 11.368C3.21838 12.168 3.04238 12.792 2.69038 13.24C2.37038 13.688 1.95438 13.912 1.44238 13.912C0.482375 13.912 0.00237504 13.368 0.00237504 12.28C0.00237504 10.136 0.946375 8.296 2.83438 6.76C4.75438 5.192 7.13838 4.136 9.98638 3.592C10.5944 1.544 11.4424 0.519998 12.5304 0.519998C12.9784 0.519998 13.2024 1.416 13.2024 3.208ZM21.5064 14.2C21.5064 11.32 20.6744 9.128 19.0104 7.624C17.3784 6.088 15.3944 5.272 13.0584 5.176C12.5784 10.84 12.3384 16.168 12.3384 21.16C12.7864 21.224 13.1384 21.256 13.3944 21.256C16.0824 21.256 18.0984 20.568 19.4424 19.192C20.8184 17.816 21.5064 16.152 21.5064 14.2ZM40.7896 20.584C42.0696 20.168 42.9496 19.816 43.4296 19.528C43.9416 19.208 44.3256 18.968 44.5816 18.808L45.1576 18.472C45.3176 18.376 45.4456 18.328 45.5416 18.328C45.7976 18.328 45.9256 18.472 45.9256 18.76C45.9256 19.048 45.4296 19.56 44.4376 20.296C43.4456 21 42.2136 21.64 40.7416 22.216C40.5176 24.904 39.6696 27.08 38.1976 28.744C36.7256 30.408 34.6296 31.24 31.9096 31.24C29.9256 31.24 28.4056 30.456 27.3496 28.888C26.2936 27.288 25.7656 25.432 25.7656 23.32C25.7656 21.176 26.3896 19.16 27.6376 17.272C28.9176 15.384 30.5496 14.44 32.5336 14.44C33.4296 13.8 34.4856 13.48 35.7016 13.48C36.9496 13.48 38.1016 14.136 39.1576 15.448C40.2136 16.76 40.7576 18.472 40.7896 20.584ZM37.6696 23.032L35.9416 23.128C34.4696 23.128 33.2216 22.696 32.1976 21.832C31.1736 20.936 30.6616 19.96 30.6616 18.904C30.6616 17.848 30.8376 16.936 31.1896 16.168C29.8136 17.256 29.1256 19.4 29.1256 22.6C29.1256 24.136 29.4456 25.608 30.0856 27.016C30.7256 28.392 31.7336 29.08 33.1096 29.08C34.4856 29.08 35.5576 28.504 36.3256 27.352C37.0936 26.168 37.5416 24.728 37.6696 23.032ZM34.6936 15.064C34.1816 15.064 33.7816 15.304 33.4936 15.784C33.2056 16.232 33.0616 16.728 33.0616 17.272C33.0616 18.456 33.4616 19.416 34.2616 20.152C35.0936 20.888 36.0536 21.256 37.1416 21.256H37.7176C37.6536 19.688 37.3816 18.264 36.9016 16.984C36.4536 15.704 35.7176 15.064 34.6936 15.064ZM47.426 18.472L50.066 18.184C50.322 18.184 50.546 18.328 50.738 18.616C50.93 18.904 51.026 19.208 51.026 19.528C51.026 19.848 50.914 20.936 50.69 22.792C50.498 24.648 50.402 26.12 50.402 27.208C50.402 28.264 50.498 28.792 50.69 28.792C51.234 28.76 51.986 28.088 52.946 26.776C53.906 25.432 54.85 23.72 55.778 21.64C56.738 19.56 57.314 18.52 57.506 18.52C57.73 18.52 57.842 18.648 57.842 18.904C57.842 19.8 57.378 21.224 56.45 23.176C53.922 28.552 51.794 31.24 50.066 31.24C48.818 31.24 47.874 30.984 47.234 30.472C47.01 30.248 46.898 28.856 46.898 26.296C46.898 23.736 47.17 21.544 47.714 19.72C45.858 19.72 44.562 19.128 43.826 17.944C43.442 17.336 43.25 16.648 43.25 15.88C43.25 15.112 43.41 14.44 43.73 13.864C44.05 13.288 44.498 13 45.074 13C45.682 13 46.226 13.32 46.706 13.96C47.218 14.568 47.474 15.256 47.474 16.024C47.474 16.792 47.25 17.56 46.802 18.328C46.93 18.424 47.138 18.472 47.426 18.472ZM66.2364 23.176C63.7084 28.552 61.5644 31.24 59.8044 31.24C58.0764 31.24 57.0524 31.032 56.7324 30.616C56.4444 30.2 56.3004 28.824 56.3004 26.488C56.3004 24.152 56.5244 20.776 56.9724 16.36C55.3724 16.04 54.5244 15.384 54.4284 14.392C54.4284 13.88 54.7644 13.624 55.4364 13.624C56.1084 13.624 56.7004 13.752 57.2124 14.008C57.5004 11.704 57.8364 9.368 58.2204 7C58.3164 6.392 58.6204 5.816 59.1324 5.272C59.6444 4.728 60.1404 4.456 60.6204 4.456C61.0364 4.456 61.2444 5.112 61.2444 6.424C61.2444 7.032 61.0204 9.832 60.5724 14.824C61.4364 14.664 62.3804 14.344 63.4044 13.864C64.4604 13.384 65.0844 13.144 65.2764 13.144C65.8524 13.144 66.1404 13.32 66.1404 13.672C66.1724 13.992 65.5804 14.44 64.3644 15.016C63.1484 15.56 61.8364 15.976 60.4284 16.264C60.0444 20.936 59.8524 24.472 59.8524 26.872C59.8524 28.152 60.0444 28.792 60.4284 28.792C61.0044 28.76 61.7724 28.088 62.7324 26.776C63.6924 25.464 64.6364 23.768 65.5644 21.688C66.5244 19.576 67.1004 18.52 67.2924 18.52C67.5164 18.52 67.6284 18.648 67.6284 18.904C67.6284 19.8 67.1644 21.224 66.2364 23.176ZM72.2926 20.872C74.0206 20.456 75.4606 19.928 76.6126 19.288C77.7966 18.648 78.4206 18.328 78.4846 18.328C78.6766 18.328 78.7726 18.488 78.7726 18.808C78.7726 19.128 78.4526 19.528 77.8126 20.008C76.4686 21 74.7886 21.848 72.7726 22.552C73.6046 25.72 74.0206 29.08 74.0206 32.632C74.0206 35.608 73.6846 38.456 73.0126 41.176C72.6286 42.712 72.0206 43.96 71.1886 44.92C70.3886 45.88 69.3966 46.36 68.2126 46.36C67.1886 46.36 66.4846 45.912 66.1006 45.016C65.6206 43.96 65.3486 42.952 65.2846 41.992C65.1886 40.488 65.1406 38.04 65.1406 34.648C65.1406 31.256 65.3966 27.16 65.9086 22.36C64.7566 21.528 64.1806 20.52 64.1806 19.336C64.1806 18.12 64.4366 17.192 64.9486 16.552C65.4606 15.88 66.1006 15.448 66.8686 15.256C67.3166 12.472 67.7486 10.072 68.1646 8.056C68.6126 6.04 69.2846 4.408 70.1806 3.16C71.0766 1.88 71.9726 1.24 72.8686 1.24C73.8926 1.24 74.4046 2.376 74.4046 4.648C74.4046 8.232 73.0766 12.264 70.4206 16.744C71.0926 17.704 71.7166 19.08 72.2926 20.872ZM68.9326 23.272C68.6446 27.208 68.5006 31.72 68.5006 36.808C68.5006 41.928 68.7726 44.488 69.3166 44.488C70.2766 44.488 71.0766 43.224 71.7166 40.696C72.3566 38.2 72.6766 35.384 72.6766 32.248C72.6766 29.144 72.3246 26.024 71.6206 22.888C70.6606 23.144 69.7646 23.272 68.9326 23.272ZM69.6526 16.072C70.5806 14.536 71.4286 12.728 72.1966 10.648C72.9646 8.536 73.3486 6.776 73.3486 5.368C73.3486 3.96 73.2046 3.256 72.9166 3.256C72.4046 3.256 71.8446 4.424 71.2366 6.76C70.6606 9.096 70.1326 12.2 69.6526 16.072ZM69.6526 17.992L69.3646 18.472L69.1246 20.92C69.5406 21.048 69.9086 21.112 70.2286 21.112C70.5806 21.112 70.8686 21.096 71.0926 21.064C70.6766 19.816 70.1966 18.792 69.6526 17.992ZM66.6766 16.456C66.1966 16.616 65.9566 16.984 65.9566 17.56C65.9566 18.136 66.0846 18.632 66.3406 19.048C66.4686 17.896 66.5806 17.032 66.6766 16.456ZM91.0396 20.584C92.3196 20.168 93.1996 19.816 93.6796 19.528C94.1916 19.208 94.5756 18.968 94.8316 18.808L95.4076 18.472C95.5676 18.376 95.6956 18.328 95.7916 18.328C96.0476 18.328 96.1756 18.472 96.1756 18.76C96.1756 19.048 95.6796 19.56 94.6876 20.296C93.6956 21 92.4636 21.64 90.9916 22.216C90.7676 24.904 89.9196 27.08 88.4476 28.744C86.9756 30.408 84.8796 31.24 82.1596 31.24C80.1756 31.24 78.6556 30.456 77.5996 28.888C76.5436 27.288 76.0156 25.432 76.0156 23.32C76.0156 21.176 76.6396 19.16 77.8876 17.272C79.1676 15.384 80.7996 14.44 82.7836 14.44C83.6796 13.8 84.7356 13.48 85.9516 13.48C87.1996 13.48 88.3516 14.136 89.4076 15.448C90.4636 16.76 91.0076 18.472 91.0396 20.584ZM87.9196 23.032L86.1916 23.128C84.7196 23.128 83.4716 22.696 82.4476 21.832C81.4236 20.936 80.9116 19.96 80.9116 18.904C80.9116 17.848 81.0876 16.936 81.4396 16.168C80.0636 17.256 79.3756 19.4 79.3756 22.6C79.3756 24.136 79.6956 25.608 80.3356 27.016C80.9756 28.392 81.9836 29.08 83.3596 29.08C84.7356 29.08 85.8076 28.504 86.5756 27.352C87.3436 26.168 87.7916 24.728 87.9196 23.032ZM84.9436 15.064C84.4316 15.064 84.0316 15.304 83.7436 15.784C83.4556 16.232 83.3116 16.728 83.3116 17.272C83.3116 18.456 83.7116 19.416 84.5116 20.152C85.3436 20.888 86.3036 21.256 87.3916 21.256H87.9676C87.9036 19.688 87.6316 18.264 87.1516 16.984C86.7036 15.704 85.9676 15.064 84.9436 15.064ZM97.004 31.24C96.3 31.24 95.644 31.16 95.036 31C94.46 30.808 94.108 30.632 93.98 30.472C93.66 30.088 93.5 28.104 93.5 24.52C93.5 20.904 93.9 16.008 94.7 9.832C95.372 4.744 96.94 2.2 99.404 2.2C99.98 2.2 100.396 2.52 100.652 3.16C100.908 3.768 101.036 4.36 101.036 4.936C101.036 9.096 99.772 13.752 97.244 18.904C97.148 21.56 97.1 23.88 97.1 25.864C97.1 27.816 97.276 28.792 97.628 28.792C98.172 28.76 98.924 28.088 99.884 26.776C100.844 25.432 101.788 23.72 102.716 21.64C103.676 19.56 104.252 18.52 104.444 18.52C104.668 18.52 104.78 18.648 104.78 18.904C104.78 19.8 104.316 21.224 103.388 23.176C100.86 28.552 98.732 31.24 97.004 31.24ZM99.836 5.368C99.836 4.344 99.708 3.832 99.452 3.832C98.492 3.832 97.788 7.816 97.34 15.784C99.004 11.4 99.836 7.928 99.836 5.368ZM103.667 7.528C103.667 6.952 103.971 6.456 104.579 6.04C105.187 5.624 105.731 5.416 106.211 5.416C107.075 5.416 107.507 5.912 107.507 6.904C107.507 7.896 107.251 8.76 106.739 9.496C106.227 10.2 105.507 10.552 104.579 10.552C103.971 10.552 103.667 9.544 103.667 7.528ZM105.059 31.24C103.811 31.24 102.867 30.984 102.227 30.472C102.003 30.248 101.891 29.448 101.891 28.072C101.891 26.696 101.987 24.408 102.179 21.208C102.403 17.976 102.595 16.232 102.755 15.976C102.915 15.72 103.411 15.24 104.243 14.536C105.075 13.832 105.715 13.48 106.163 13.48C106.643 13.48 106.883 14.088 106.883 15.304C106.883 15.624 106.787 16.248 106.595 17.176C106.435 18.104 106.243 18.776 106.019 19.192C105.603 20.248 105.395 23.016 105.395 27.496C105.395 28.36 105.491 28.792 105.683 28.792C106.227 28.76 106.979 28.088 107.939 26.776C108.899 25.432 109.843 23.72 110.771 21.64C111.731 19.56 112.307 18.52 112.499 18.52C112.723 18.52 112.835 18.648 112.835 18.904C112.835 19.8 112.371 21.224 111.443 23.176C108.915 28.552 106.787 31.24 105.059 31.24ZM125.305 20.584C126.585 20.168 127.465 19.816 127.945 19.528C128.457 19.208 128.841 18.968 129.097 18.808L129.673 18.472C129.833 18.376 129.961 18.328 130.057 18.328C130.313 18.328 130.441 18.472 130.441 18.76C130.441 19.048 129.945 19.56 128.953 20.296C127.961 21 126.729 21.64 125.257 22.216C125.033 24.904 124.185 27.08 122.713 28.744C121.241 30.408 119.145 31.24 116.425 31.24C114.441 31.24 112.921 30.456 111.865 28.888C110.809 27.288 110.281 25.432 110.281 23.32C110.281 21.176 110.905 19.16 112.153 17.272C113.433 15.384 115.065 14.44 117.049 14.44C117.945 13.8 119.001 13.48 120.217 13.48C121.465 13.48 122.617 14.136 123.673 15.448C124.729 16.76 125.273 18.472 125.305 20.584ZM122.185 23.032L120.457 23.128C118.985 23.128 117.737 22.696 116.713 21.832C115.689 20.936 115.177 19.96 115.177 18.904C115.177 17.848 115.353 16.936 115.705 16.168C114.329 17.256 113.641 19.4 113.641 22.6C113.641 24.136 113.961 25.608 114.601 27.016C115.241 28.392 116.249 29.08 117.625 29.08C119.001 29.08 120.073 28.504 120.841 27.352C121.609 26.168 122.057 24.728 122.185 23.032ZM119.209 15.064C118.697 15.064 118.297 15.304 118.009 15.784C117.721 16.232 117.577 16.728 117.577 17.272C117.577 18.456 117.977 19.416 118.777 20.152C119.609 20.888 120.569 21.256 121.657 21.256H122.233C122.169 19.688 121.897 18.264 121.417 16.984C120.969 15.704 120.233 15.064 119.209 15.064Z" fill="white"/>
</svg>
