<svg width="340" height="592" viewBox="0 0 340 592" fill="none" xmlns="http://www.w3.org/2000/svg">
<path d="M190.398 519.474C195.858 520.858 200.142 525.142 201.526 530.602C201.659 531.133 202.341 531.133 202.474 530.602C203.858 525.142 208.142 520.858 213.602 519.474C214.133 519.341 214.133 518.659 213.602 518.526C208.142 517.142 203.858 512.858 202.474 507.398C202.341 506.867 201.659 506.867 201.526 507.398C200.142 512.858 195.858 517.142 190.398 518.526C189.867 518.659 189.867 519.341 190.398 519.474Z" fill="white"/>
<path d="M122.398 12.4739C127.858 13.8578 132.142 18.1422 133.526 23.6019C133.659 24.1327 134.341 24.1327 134.474 23.6019C135.858 18.1422 140.142 13.8578 145.602 12.4739C146.133 12.3412 146.133 11.6588 145.602 11.5261C140.142 10.1422 135.858 5.85782 134.474 0.398104C134.341 -0.132701 133.659 -0.132701 133.526 0.398104C132.142 5.85782 127.858 10.1422 122.398 11.5261C121.867 11.6588 121.867 12.3412 122.398 12.4739Z" fill="white"/>
<path d="M329.182 59.7172C331.685 60.3515 333.648 62.3152 334.283 64.8175C334.344 65.0608 334.656 65.0608 334.717 64.8175C335.352 62.3152 337.315 60.3515 339.818 59.7172C340.061 59.6564 340.061 59.3436 339.818 59.2828C337.315 58.6485 335.352 56.6848 334.717 54.1825C334.656 53.9392 334.344 53.9392 334.283 54.1825C333.648 56.6848 331.685 58.6485 329.182 59.2828C328.939 59.3436 328.939 59.6564 329.182 59.7172Z" fill="white"/>
<path d="M153.182 302.717C155.685 303.352 157.648 305.315 158.283 307.818C158.344 308.061 158.656 308.061 158.717 307.818C159.352 305.315 161.315 303.352 163.818 302.717C164.061 302.656 164.061 302.344 163.818 302.283C161.315 301.648 159.352 299.685 158.717 297.182C158.656 296.939 158.344 296.939 158.283 297.182C157.648 299.685 155.685 301.648 153.182 302.283C152.939 302.344 152.939 302.656 153.182 302.717Z" fill="white"/>
<path d="M0.182464 194.717C2.68483 195.352 4.6485 197.315 5.28278 199.818C5.3436 200.061 5.6564 200.061 5.71722 199.818C6.3515 197.315 8.31517 195.352 10.8175 194.717C11.0608 194.656 11.0608 194.344 10.8175 194.283C8.31517 193.648 6.3515 191.685 5.71722 189.182C5.6564 188.939 5.3436 188.939 5.28278 189.182C4.6485 191.685 2.68483 193.648 0.182464 194.283C-0.0608215 194.344 -0.0608215 194.656 0.182464 194.717Z" fill="white"/>
<path d="M13.1825 586.717C15.6848 587.352 17.6485 589.315 18.2828 591.818C18.3436 592.061 18.6564 592.061 18.7172 591.818C19.3515 589.315 21.3152 587.352 23.8175 586.717C24.0608 586.656 24.0608 586.344 23.8175 586.283C21.3152 585.648 19.3515 583.685 18.7172 581.182C18.6564 580.939 18.3436 580.939 18.2828 581.182C17.6485 583.685 15.6848 585.648 13.1825 586.283C12.9392 586.344 12.9392 586.656 13.1825 586.717Z" fill="white"/>
</svg>
