<svg width="307" height="332" viewBox="0 0 307 332" fill="none" xmlns="http://www.w3.org/2000/svg">
<path d="M43.2654 324.316C46.9052 325.239 49.7615 328.095 50.684 331.735C50.7725 332.088 51.2275 332.088 51.316 331.735C52.2385 328.095 55.0948 325.239 58.7346 324.316C59.0885 324.227 59.0885 323.773 58.7346 323.684C55.0948 322.761 52.2385 319.905 51.316 316.265C51.2275 315.912 50.7725 315.912 50.684 316.265C49.7615 319.905 46.9052 322.761 43.2654 323.684C42.9115 323.773 42.9115 324.227 43.2654 324.316Z" fill="white"/>
<path d="M23.2959 63.3504C27.3863 64.3896 30.607 67.6118 31.6457 71.704C31.7423 72.0987 32.2496 72.0987 32.3543 71.704C33.393 67.6118 36.6137 64.3896 40.7041 63.3504C41.0986 63.2537 41.0986 62.7463 40.7041 62.6415C36.6057 61.6104 33.3849 58.3882 32.3543 54.296C32.2577 53.9013 31.7504 53.9013 31.6457 54.296C30.607 58.3882 27.3863 61.6104 23.2959 62.6496C22.9014 62.7463 22.9014 63.2537 23.2959 63.3504Z" fill="white"/>
<path d="M298.115 277.636C299.706 278.04 300.958 279.293 301.362 280.885C301.4 281.038 301.597 281.038 301.638 280.885C302.042 279.293 303.294 278.04 304.885 277.636C305.038 277.599 305.038 277.401 304.885 277.361C303.291 276.96 302.039 275.707 301.638 274.115C301.6 273.962 301.403 273.962 301.362 274.115C300.958 275.707 299.706 276.96 298.115 277.364C297.962 277.401 297.962 277.599 298.115 277.636Z" fill="white"/>
<path d="M15.1151 145.636C16.7058 146.04 17.9583 147.293 18.3622 148.885C18.3998 149.038 18.5971 149.038 18.6378 148.885C19.0417 147.293 20.2942 146.04 21.8849 145.636C22.0384 145.599 22.0384 145.401 21.8849 145.361C20.2911 144.96 19.0386 143.707 18.6378 142.115C18.6002 141.962 18.4029 141.962 18.3622 142.115C17.9583 143.707 16.7058 144.96 15.1151 145.364C14.9616 145.401 14.9616 145.599 15.1151 145.636Z" fill="white"/>
<path d="M298.148 4.67521C300.193 5.19479 301.804 6.80589 302.323 8.85198C302.371 9.04934 302.625 9.04934 302.677 8.85198C303.196 6.80589 304.807 5.19479 306.852 4.67521C307.049 4.62687 307.049 4.37313 306.852 4.32077C304.803 3.80521 303.192 2.19411 302.677 0.14802C302.629 -0.0493399 302.375 -0.0493399 302.323 0.14802C301.804 2.19411 300.193 3.80521 298.148 4.32479C297.951 4.37313 297.951 4.62687 298.148 4.67521Z" fill="white"/>
<path d="M0.507779 23.1075C7.5564 24.8975 13.1118 30.4436 14.8925 37.4922C15.0687 38.1693 15.9405 38.1693 16.1075 37.4922C17.8975 30.4436 23.4436 24.8882 30.4922 23.1075C31.1693 22.9313 31.1693 22.0595 30.4922 21.8925C23.4436 20.1025 17.8882 14.5564 16.1075 7.50778C15.9313 6.83074 15.0595 6.83074 14.8925 7.50778C13.1025 14.5564 7.5564 20.1118 0.507779 21.8925C-0.16926 22.0595 -0.16926 22.9313 0.507779 23.1075Z" fill="white"/>
</svg>
