<svg width="260" height="613" viewBox="0 0 260 613" fill="none" xmlns="http://www.w3.org/2000/svg">
<path d="M0.796208 182.948C11.7156 185.716 20.2844 194.284 23.0521 205.204C23.3175 206.265 24.6825 206.265 24.9479 205.204C27.7156 194.284 36.2844 185.716 47.2038 182.948C48.2654 182.682 48.2654 181.318 47.2038 181.052C36.2844 178.284 27.7156 169.716 24.9479 158.796C24.6825 157.735 23.3175 157.735 23.0521 158.796C20.2844 169.716 11.7156 178.284 0.796208 181.052C-0.265403 181.318 -0.265403 182.682 0.796208 182.948Z" fill="white"/>
<path d="M224.398 12.4739C229.858 13.8578 234.142 18.1422 235.526 23.6019C235.659 24.1327 236.341 24.1327 236.474 23.6019C237.858 18.1422 242.142 13.8578 247.602 12.4739C248.133 12.3412 248.133 11.6588 247.602 11.5261C242.142 10.1422 237.858 5.85782 236.474 0.398104C236.341 -0.132701 235.659 -0.132701 235.526 0.398104C234.142 5.85782 229.858 10.1422 224.398 11.5261C223.867 11.6588 223.867 12.3412 224.398 12.4739Z" fill="white"/>
<path d="M236.398 546.474C241.858 547.858 246.142 552.142 247.526 557.602C247.659 558.133 248.341 558.133 248.474 557.602C249.858 552.142 254.142 547.858 259.602 546.474C260.133 546.341 260.133 545.659 259.602 545.526C254.142 544.142 249.858 539.858 248.474 534.398C248.341 533.867 247.659 533.867 247.526 534.398C246.142 539.858 241.858 544.142 236.398 545.526C235.867 545.659 235.867 546.341 236.398 546.474Z" fill="white"/>
<path d="M124.199 607.237C126.929 607.929 129.071 610.071 129.763 612.801C129.829 613.066 130.171 613.066 130.237 612.801C130.929 610.071 133.071 607.929 135.801 607.237C136.066 607.171 136.066 606.829 135.801 606.763C133.071 606.071 130.929 603.929 130.237 601.199C130.171 600.934 129.829 600.934 129.763 601.199C129.071 603.929 126.929 606.071 124.199 606.763C123.934 606.829 123.934 607.171 124.199 607.237Z" fill="white"/>
<path d="M0.199052 453.237C2.92891 453.929 5.07109 456.071 5.76303 458.801C5.82938 459.066 6.17062 459.066 6.23697 458.801C6.92891 456.071 9.07109 453.929 11.8009 453.237C12.0664 453.171 12.0664 452.829 11.8009 452.763C9.07109 452.071 6.92891 449.929 6.23697 447.199C6.17062 446.934 5.82938 446.934 5.76303 447.199C5.07109 449.929 2.92891 452.071 0.199052 452.763C-0.0663507 452.829 -0.0663507 453.171 0.199052 453.237Z" fill="white"/>
<path d="M248.199 128.237C250.929 128.929 253.071 131.071 253.763 133.801C253.829 134.066 254.171 134.066 254.237 133.801C254.929 131.071 257.071 128.929 259.801 128.237C260.066 128.171 260.066 127.829 259.801 127.763C257.071 127.071 254.929 124.929 254.237 122.199C254.171 121.934 253.829 121.934 253.763 122.199C253.071 124.929 250.929 127.071 248.199 127.763C247.934 127.829 247.934 128.171 248.199 128.237Z" fill="white"/>
<path d="M64.0995 21.1185C65.4645 21.4645 66.5355 22.5355 66.8815 23.9005C66.9147 24.0332 67.0853 24.0332 67.1185 23.9005C67.4645 22.5355 68.5355 21.4645 69.9005 21.1185C70.0332 21.0853 70.0332 20.9147 69.9005 20.8815C68.5355 20.5355 67.4645 19.4645 67.1185 18.0995C67.0853 17.9668 66.9147 17.9668 66.8815 18.0995C66.5355 19.4645 65.4645 20.5355 64.0995 20.8815C63.9668 20.9147 63.9668 21.0853 64.0995 21.1185Z" fill="white"/>
</svg>
