<svg width="328" height="324" viewBox="0 0 328 324" fill="none" xmlns="http://www.w3.org/2000/svg">
<path d="M0.262079 316.314C3.90007 317.237 6.76739 320.1 7.68646 323.738C7.77741 324.087 8.22738 324.087 8.31354 323.738C9.2374 320.1 12.0999 317.233 15.7379 316.314C16.0874 316.223 16.0874 315.773 15.7379 315.686C12.0999 314.763 9.23261 311.9 8.31354 308.262C8.22259 307.913 7.77263 307.913 7.68646 308.262C6.7626 311.9 3.90007 314.767 0.262079 315.686C-0.0873598 315.773 -0.0873598 316.223 0.262079 316.314Z" fill="white"/>
<path d="M284.459 14.5487C290.825 16.1654 295.843 21.1749 297.451 27.5414C297.61 28.1529 298.398 28.1529 298.549 27.5414C300.165 21.1749 305.175 16.1571 311.541 14.5487C312.153 14.3895 312.153 13.6021 311.541 13.4513C305.175 11.8346 300.157 6.82513 298.549 0.458639C298.39 -0.15288 297.602 -0.15288 297.451 0.458639C295.835 6.82513 290.825 11.8429 284.459 13.4513C283.847 13.6021 283.847 14.3895 284.459 14.5487Z" fill="white"/>
<path d="M312.262 28.3135C315.9 29.2374 318.767 32.0999 319.686 35.7379C319.777 36.0874 320.227 36.0874 320.314 35.7379C321.237 32.0999 324.1 29.2326 327.738 28.3135C328.087 28.2226 328.087 27.7726 327.738 27.6865C324.1 26.7626 321.233 23.9001 320.314 20.2621C320.223 19.9126 319.773 19.9126 319.686 20.2621C318.763 23.9001 315.9 26.7674 312.262 27.6865C311.913 27.7726 311.913 28.2226 312.262 28.3135Z" fill="white"/>
</svg>
