<svg width="561" height="481" viewBox="0 0 561 481" fill="none" xmlns="http://www.w3.org/2000/svg">
<path fill-rule="evenodd" clip-rule="evenodd" d="M321.765 58.8786C363.493 74.9296 373.449 117.893 407.906 142.845C443.59 168.686 506.432 172.925 525.703 206.563C544.634 239.61 512.452 270.979 499.1 302.033C487.152 329.823 475.719 357.435 451.506 379.134C426.267 401.753 396.201 422.128 357.01 429.373C317.268 436.719 271.904 434.217 231.231 419.853C192.288 406.1 167.783 376.23 137.744 351.939C108.907 328.618 74.3978 308.47 57.9594 279.732C40.8511 249.822 36.4147 217.338 43.8939 187.865C51.3657 158.421 75.1602 135.437 100.062 113.821C125.96 91.3398 153.29 69.1385 191.603 59.6435C231.931 49.6494 279.752 42.7184 321.765 58.8786Z" fill="#B9E2FF" fill-opacity="0.17"/>
</svg>
